<mxfile host="app.diagrams.net" agent="Mozilla/5.0 (Windows NT 10.0; Win64; x64) AppleWebKit/537.36 (KHTML, like Gecko) Chrome/131.0.0.0 Safari/537.36" version="25.0.3" pages="3">
  <diagram name="第 1 页" id="6CbwOrJVsnuf3kYcu1L7">
    <mxGraphModel dx="938" dy="809" grid="0" gridSize="10" guides="1" tooltips="1" connect="1" arrows="1" fold="1" page="0" pageScale="1" pageWidth="827" pageHeight="1169" math="0" shadow="0">
      <root>
        <mxCell id="0" />
        <mxCell id="1" parent="0" />
        <mxCell id="OwyXpLdGf6PihrEyagM3-7" style="rounded=0;orthogonalLoop=1;jettySize=auto;html=1;fontSize=12;startSize=8;endSize=8;dashed=1;endArrow=openThin;endFill=0;strokeWidth=2;" edge="1" parent="1" source="OwyXpLdGf6PihrEyagM3-1" target="OwyXpLdGf6PihrEyagM3-6">
          <mxGeometry relative="1" as="geometry" />
        </mxCell>
        <mxCell id="OwyXpLdGf6PihrEyagM3-8" style="edgeStyle=orthogonalEdgeStyle;rounded=0;orthogonalLoop=1;jettySize=auto;html=1;entryX=0;entryY=0.5;entryDx=0;entryDy=0;fontSize=12;startSize=8;endSize=8;exitX=0.5;exitY=0;exitDx=0;exitDy=0;endArrow=openThin;endFill=0;strokeColor=#97D077;strokeWidth=2;" edge="1" parent="1">
          <mxGeometry relative="1" as="geometry">
            <mxPoint x="61.5" y="-324" as="sourcePoint" />
            <mxPoint x="165" y="-358.5" as="targetPoint" />
            <Array as="points">
              <mxPoint x="62" y="-358" />
            </Array>
          </mxGeometry>
        </mxCell>
        <mxCell id="OwyXpLdGf6PihrEyagM3-10" style="edgeStyle=none;curved=1;rounded=0;orthogonalLoop=1;jettySize=auto;html=1;fontSize=12;startSize=8;endSize=8;endArrow=openThin;endFill=0;strokeColor=#7EA6E0;strokeWidth=2;" edge="1" parent="1" source="OwyXpLdGf6PihrEyagM3-1" target="OwyXpLdGf6PihrEyagM3-3">
          <mxGeometry relative="1" as="geometry" />
        </mxCell>
        <mxCell id="OwyXpLdGf6PihrEyagM3-11" style="edgeStyle=orthogonalEdgeStyle;rounded=0;orthogonalLoop=1;jettySize=auto;html=1;entryX=0;entryY=0.5;entryDx=0;entryDy=0;fontSize=12;startSize=8;endSize=8;endArrow=openThin;endFill=0;strokeColor=#FFB570;strokeWidth=2;" edge="1" parent="1" source="OwyXpLdGf6PihrEyagM3-1" target="OwyXpLdGf6PihrEyagM3-5">
          <mxGeometry relative="1" as="geometry">
            <Array as="points">
              <mxPoint x="62" y="-242" />
            </Array>
          </mxGeometry>
        </mxCell>
        <mxCell id="OwyXpLdGf6PihrEyagM3-1" value="&lt;font style=&quot;font-size: 10px;&quot;&gt;USA&lt;/font&gt;" style="ellipse;whiteSpace=wrap;html=1;aspect=fixed;fillColor=#dae8fc;strokeColor=#6c8ebf;" vertex="1" parent="1">
          <mxGeometry x="43" y="-322" width="37" height="37" as="geometry" />
        </mxCell>
        <mxCell id="OwyXpLdGf6PihrEyagM3-9" style="edgeStyle=orthogonalEdgeStyle;rounded=0;orthogonalLoop=1;jettySize=auto;html=1;entryX=0.5;entryY=0;entryDx=0;entryDy=0;fontSize=12;startSize=8;endSize=8;endArrow=openThin;endFill=0;strokeColor=#97D077;strokeWidth=2;" edge="1" parent="1" source="OwyXpLdGf6PihrEyagM3-2" target="OwyXpLdGf6PihrEyagM3-3">
          <mxGeometry relative="1" as="geometry" />
        </mxCell>
        <mxCell id="OwyXpLdGf6PihrEyagM3-2" value="&lt;span style=&quot;color: rgb(51, 51, 51); font-family: arial; text-align: start;&quot;&gt;&lt;font style=&quot;font-size: 10px;&quot;&gt;Donald Trump&lt;/font&gt;&lt;/span&gt;" style="ellipse;whiteSpace=wrap;html=1;aspect=fixed;fillColor=#ffe6cc;strokeColor=#d79b00;" vertex="1" parent="1">
          <mxGeometry x="165" y="-375" width="37" height="37" as="geometry" />
        </mxCell>
        <mxCell id="OwyXpLdGf6PihrEyagM3-3" value="&lt;span style=&quot;color: rgb(51, 51, 51); font-family: arial; text-align: start;&quot;&gt;&lt;font style=&quot;font-size: 10px;&quot;&gt;Joe Biden&lt;/font&gt;&lt;/span&gt;" style="ellipse;whiteSpace=wrap;html=1;aspect=fixed;fillColor=#f8cecc;strokeColor=#b85450;" vertex="1" parent="1">
          <mxGeometry x="316" y="-322" width="37" height="37" as="geometry" />
        </mxCell>
        <mxCell id="OwyXpLdGf6PihrEyagM3-13" style="edgeStyle=orthogonalEdgeStyle;rounded=0;orthogonalLoop=1;jettySize=auto;html=1;fontSize=12;startSize=8;endSize=8;endArrow=openThin;endFill=0;strokeColor=#FFB570;strokeWidth=2;" edge="1" parent="1" source="OwyXpLdGf6PihrEyagM3-4">
          <mxGeometry relative="1" as="geometry">
            <mxPoint x="335.73338317871094" y="-283.866641998291" as="targetPoint" />
          </mxGeometry>
        </mxCell>
        <mxCell id="OwyXpLdGf6PihrEyagM3-4" value="&lt;span style=&quot;color: rgb(51, 51, 51); font-family: arial; text-align: start;&quot;&gt;&lt;font style=&quot;font-size: 10px;&quot;&gt;Justin Trudeau&lt;/font&gt;&lt;/span&gt;" style="ellipse;whiteSpace=wrap;html=1;aspect=fixed;fillColor=#e1d5e7;strokeColor=#9673a6;" vertex="1" parent="1">
          <mxGeometry x="216" y="-261" width="37" height="37" as="geometry" />
        </mxCell>
        <mxCell id="OwyXpLdGf6PihrEyagM3-12" style="edgeStyle=none;curved=1;rounded=0;orthogonalLoop=1;jettySize=auto;html=1;fontSize=12;startSize=8;endSize=8;endArrow=openThin;endFill=0;strokeColor=#FFB570;strokeWidth=2;" edge="1" parent="1" source="OwyXpLdGf6PihrEyagM3-5" target="OwyXpLdGf6PihrEyagM3-4">
          <mxGeometry relative="1" as="geometry" />
        </mxCell>
        <mxCell id="OwyXpLdGf6PihrEyagM3-5" value="&lt;font style=&quot;font-size: 10px;&quot;&gt;Canada&lt;/font&gt;" style="ellipse;whiteSpace=wrap;html=1;aspect=fixed;fillColor=#FFFFCC;strokeColor=#666666;fontColor=#333333;" vertex="1" parent="1">
          <mxGeometry x="98" y="-261" width="37" height="37" as="geometry" />
        </mxCell>
        <mxCell id="OwyXpLdGf6PihrEyagM3-6" value="？" style="ellipse;whiteSpace=wrap;html=1;aspect=fixed;fillColor=#f5f5f5;fontColor=#333333;strokeColor=#666666;" vertex="1" parent="1">
          <mxGeometry x="-58" y="-322" width="37" height="37" as="geometry" />
        </mxCell>
        <mxCell id="OwyXpLdGf6PihrEyagM3-14" value="&lt;font style=&quot;font-size: 10px;&quot;&gt;President,2016&lt;/font&gt;" style="text;html=1;align=center;verticalAlign=middle;whiteSpace=wrap;rounded=0;fontSize=16;" vertex="1" parent="1">
          <mxGeometry x="75" y="-384" width="60" height="30" as="geometry" />
        </mxCell>
        <mxCell id="OwyXpLdGf6PihrEyagM3-15" value="&lt;font style=&quot;font-size: 10px;&quot;&gt;Successor,2021&lt;/font&gt;" style="text;html=1;align=center;verticalAlign=middle;whiteSpace=wrap;rounded=0;fontSize=16;" vertex="1" parent="1">
          <mxGeometry x="236" y="-384" width="60" height="30" as="geometry" />
        </mxCell>
        <mxCell id="OwyXpLdGf6PihrEyagM3-16" value="&lt;font style=&quot;font-size: 10px;&quot;&gt;Born in &lt;sup&gt;-1&lt;/sup&gt;,1942&lt;/font&gt;" style="text;html=1;align=center;verticalAlign=middle;whiteSpace=wrap;rounded=0;fontSize=16;" vertex="1" parent="1">
          <mxGeometry x="147" y="-331" width="114" height="30" as="geometry" />
        </mxCell>
        <mxCell id="OwyXpLdGf6PihrEyagM3-17" value="&lt;font style=&quot;font-size: 10px;&quot;&gt;&lt;span style=&quot;white-space: pre;&quot; data-slate-fragment=&quot;JTVCJTdCJTIydHlwZSUyMiUzQSUyMnBhcmFncmFwaCUyMiUyQyUyMmNoaWxkcmVuJTIyJTNBJTVCJTdCJTIyaWQlMjIlM0ElMjJlTFo0cG95QU96JTIyJTJDJTIycGFyYUlkeCUyMiUzQTAlMkMlMjJzcmMlMjIlM0ElMjJlc3RhYmxpc2glMjBkaXBsb21hdGljJTIwcmVsYXRpb24lMjIlMkMlMjJkc3QlMjIlM0ElMjIlRTUlQkIlQkElRTclQUIlOEIlRTUlQTQlOTYlRTQlQkElQTQlRTUlODUlQjMlRTclQjMlQkIlMjIlMkMlMjJtZXRhZGF0YSUyMiUzQSUyMiUyMiUyQyUyMm1ldGFEYXRhJTIyJTNBJTVCJTVEJTJDJTIydGV4dCUyMiUzQSUyMmVzdGFibGlzaCUyMGRpcGxvbWF0aWMlMjByZWxhdGlvbiUyMiU3RCU1RCU3RCU1RA==&quot;&gt;establish diplomatic&lt;/span&gt;&lt;/font&gt;&lt;div&gt;&lt;font style=&quot;font-size: 10px;&quot;&gt;&lt;span style=&quot;white-space: pre;&quot; data-slate-fragment=&quot;JTVCJTdCJTIydHlwZSUyMiUzQSUyMnBhcmFncmFwaCUyMiUyQyUyMmNoaWxkcmVuJTIyJTNBJTVCJTdCJTIyaWQlMjIlM0ElMjJlTFo0cG95QU96JTIyJTJDJTIycGFyYUlkeCUyMiUzQTAlMkMlMjJzcmMlMjIlM0ElMjJlc3RhYmxpc2glMjBkaXBsb21hdGljJTIwcmVsYXRpb24lMjIlMkMlMjJkc3QlMjIlM0ElMjIlRTUlQkIlQkElRTclQUIlOEIlRTUlQTQlOTYlRTQlQkElQTQlRTUlODUlQjMlRTclQjMlQkIlMjIlMkMlMjJtZXRhZGF0YSUyMiUzQSUyMiUyMiUyQyUyMm1ldGFEYXRhJTIyJTNBJTVCJTVEJTJDJTIydGV4dCUyMiUzQSUyMmVzdGFibGlzaCUyMGRpcGxvbWF0aWMlMjByZWxhdGlvbiUyMiU3RCU1RCU3RCU1RA==&quot;&gt; relation&lt;/span&gt;,1927&lt;/font&gt;&lt;/div&gt;" style="text;html=1;align=center;verticalAlign=middle;whiteSpace=wrap;rounded=0;fontSize=16;" vertex="1" parent="1">
          <mxGeometry x="48" y="-279" width="60" height="30" as="geometry" />
        </mxCell>
        <mxCell id="OwyXpLdGf6PihrEyagM3-21" value="&lt;font style=&quot;font-size: 10px;&quot;&gt;Prime minister,2015&lt;/font&gt;" style="text;html=1;align=center;verticalAlign=middle;whiteSpace=wrap;rounded=0;fontSize=16;" vertex="1" parent="1">
          <mxGeometry x="126" y="-275" width="104" height="30" as="geometry" />
        </mxCell>
        <mxCell id="OwyXpLdGf6PihrEyagM3-22" value="&lt;font style=&quot;font-size: 10px;&quot;&gt;Interview with,2021&lt;/font&gt;" style="text;html=1;align=center;verticalAlign=middle;whiteSpace=wrap;rounded=0;fontSize=16;" vertex="1" parent="1">
          <mxGeometry x="258" y="-275" width="60" height="30" as="geometry" />
        </mxCell>
        <mxCell id="OwyXpLdGf6PihrEyagM3-23" value="&lt;font style=&quot;font-size: 10px;&quot;&gt;President,2023&lt;/font&gt;" style="text;html=1;align=center;verticalAlign=middle;whiteSpace=wrap;rounded=0;fontSize=16;" vertex="1" parent="1">
          <mxGeometry x="-17" y="-338" width="60" height="30" as="geometry" />
        </mxCell>
      </root>
    </mxGraphModel>
  </diagram>
  <diagram id="E5g6R2ys0smfF5_MfsWZ" name="第 2 页">
    <mxGraphModel dx="1033" dy="881" grid="0" gridSize="10" guides="1" tooltips="1" connect="1" arrows="1" fold="1" page="0" pageScale="1" pageWidth="827" pageHeight="1169" math="0" shadow="0">
      <root>
        <mxCell id="0" />
        <mxCell id="1" parent="0" />
        <mxCell id="a3A9hvA5tHTAVzmqJdgi-10" style="edgeStyle=none;curved=1;rounded=0;orthogonalLoop=1;jettySize=auto;html=1;fontSize=12;startSize=8;endSize=8;endArrow=classicThin;endFill=1;" edge="1" parent="1" source="a3A9hvA5tHTAVzmqJdgi-1" target="a3A9hvA5tHTAVzmqJdgi-4">
          <mxGeometry relative="1" as="geometry" />
        </mxCell>
        <mxCell id="a3A9hvA5tHTAVzmqJdgi-1" value="e&lt;sub&gt;3&lt;/sub&gt;" style="ellipse;whiteSpace=wrap;html=1;aspect=fixed;" vertex="1" parent="1">
          <mxGeometry x="-183" y="-326" width="22" height="22" as="geometry" />
        </mxCell>
        <mxCell id="a3A9hvA5tHTAVzmqJdgi-9" style="edgeStyle=none;curved=1;rounded=0;orthogonalLoop=1;jettySize=auto;html=1;entryX=0;entryY=1;entryDx=0;entryDy=0;fontSize=12;startSize=8;endSize=8;endArrow=classicThin;endFill=1;" edge="1" parent="1" source="a3A9hvA5tHTAVzmqJdgi-3" target="a3A9hvA5tHTAVzmqJdgi-1">
          <mxGeometry relative="1" as="geometry" />
        </mxCell>
        <mxCell id="a3A9hvA5tHTAVzmqJdgi-3" value="e&lt;sub&gt;4&lt;/sub&gt;" style="ellipse;whiteSpace=wrap;html=1;aspect=fixed;" vertex="1" parent="1">
          <mxGeometry x="-228" y="-283" width="22" height="22" as="geometry" />
        </mxCell>
        <mxCell id="a3A9hvA5tHTAVzmqJdgi-12" style="edgeStyle=none;curved=1;rounded=0;orthogonalLoop=1;jettySize=auto;html=1;fontSize=12;startSize=8;endSize=8;endArrow=classicThin;endFill=1;" edge="1" parent="1" source="a3A9hvA5tHTAVzmqJdgi-4" target="a3A9hvA5tHTAVzmqJdgi-6">
          <mxGeometry relative="1" as="geometry" />
        </mxCell>
        <mxCell id="a3A9hvA5tHTAVzmqJdgi-13" style="edgeStyle=none;curved=1;rounded=0;orthogonalLoop=1;jettySize=auto;html=1;entryX=0;entryY=0.5;entryDx=0;entryDy=0;fontSize=12;startSize=8;endSize=8;endArrow=classicThin;endFill=1;" edge="1" parent="1" source="a3A9hvA5tHTAVzmqJdgi-6" target="a3A9hvA5tHTAVzmqJdgi-8">
          <mxGeometry relative="1" as="geometry" />
        </mxCell>
        <mxCell id="a3A9hvA5tHTAVzmqJdgi-4" value="e&lt;sub&gt;1&lt;/sub&gt;" style="ellipse;whiteSpace=wrap;html=1;aspect=fixed;" vertex="1" parent="1">
          <mxGeometry x="-140" y="-283" width="22" height="22" as="geometry" />
        </mxCell>
        <mxCell id="a3A9hvA5tHTAVzmqJdgi-11" style="edgeStyle=none;curved=1;rounded=0;orthogonalLoop=1;jettySize=auto;html=1;entryX=1;entryY=0;entryDx=0;entryDy=0;fontSize=12;startSize=8;endSize=8;endArrow=classicThin;endFill=1;" edge="1" parent="1" source="a3A9hvA5tHTAVzmqJdgi-5" target="a3A9hvA5tHTAVzmqJdgi-4">
          <mxGeometry relative="1" as="geometry" />
        </mxCell>
        <mxCell id="a3A9hvA5tHTAVzmqJdgi-5" value="e&lt;sub&gt;2&lt;/sub&gt;" style="ellipse;whiteSpace=wrap;html=1;aspect=fixed;" vertex="1" parent="1">
          <mxGeometry x="-95" y="-333" width="22" height="22" as="geometry" />
        </mxCell>
        <mxCell id="a3A9hvA5tHTAVzmqJdgi-6" value="e&lt;sub&gt;5&lt;/sub&gt;" style="ellipse;whiteSpace=wrap;html=1;aspect=fixed;" vertex="1" parent="1">
          <mxGeometry x="-140" y="-236" width="22" height="22" as="geometry" />
        </mxCell>
        <mxCell id="a3A9hvA5tHTAVzmqJdgi-8" value="e&lt;sub&gt;6&lt;/sub&gt;" style="ellipse;whiteSpace=wrap;html=1;aspect=fixed;" vertex="1" parent="1">
          <mxGeometry x="-91" y="-261" width="22" height="22" as="geometry" />
        </mxCell>
        <mxCell id="a3A9hvA5tHTAVzmqJdgi-71" value="" style="ellipse;whiteSpace=wrap;html=1;aspect=fixed;fontSize=8;" vertex="1" parent="1">
          <mxGeometry x="3" y="-340" width="15" height="15" as="geometry" />
        </mxCell>
        <mxCell id="a3A9hvA5tHTAVzmqJdgi-72" value="" style="ellipse;whiteSpace=wrap;html=1;aspect=fixed;fontSize=8;" vertex="1" parent="1">
          <mxGeometry x="29" y="-340" width="15" height="15" as="geometry" />
        </mxCell>
        <mxCell id="a3A9hvA5tHTAVzmqJdgi-73" value="" style="ellipse;whiteSpace=wrap;html=1;aspect=fixed;fontSize=8;" vertex="1" parent="1">
          <mxGeometry x="55" y="-340" width="15" height="15" as="geometry" />
        </mxCell>
        <mxCell id="a3A9hvA5tHTAVzmqJdgi-74" value="" style="ellipse;whiteSpace=wrap;html=1;aspect=fixed;fontSize=8;" vertex="1" parent="1">
          <mxGeometry x="81" y="-340" width="15" height="15" as="geometry" />
        </mxCell>
        <mxCell id="a3A9hvA5tHTAVzmqJdgi-75" value="" style="ellipse;whiteSpace=wrap;html=1;aspect=fixed;fontSize=8;" vertex="1" parent="1">
          <mxGeometry x="107" y="-340" width="15" height="15" as="geometry" />
        </mxCell>
        <mxCell id="a3A9hvA5tHTAVzmqJdgi-76" value="" style="ellipse;whiteSpace=wrap;html=1;aspect=fixed;fontSize=8;" vertex="1" parent="1">
          <mxGeometry x="133" y="-340" width="15" height="15" as="geometry" />
        </mxCell>
      </root>
    </mxGraphModel>
  </diagram>
  <diagram id="NL0xCk05bYQ6g6bcbVPe" name="第 3 页">
    <mxGraphModel dx="1146" dy="1218" grid="0" gridSize="10" guides="1" tooltips="1" connect="1" arrows="1" fold="1" page="0" pageScale="1" pageWidth="827" pageHeight="1169" math="0" shadow="0">
      <root>
        <mxCell id="0" />
        <mxCell id="1" parent="0" />
        <mxCell id="XAVyZsMHDlcsrmJLPfq--70" value="" style="rounded=1;whiteSpace=wrap;html=1;dashed=1;" vertex="1" parent="1">
          <mxGeometry x="682" y="-394" width="323" height="319" as="geometry" />
        </mxCell>
        <mxCell id="XAVyZsMHDlcsrmJLPfq--69" value="" style="rounded=1;whiteSpace=wrap;html=1;dashed=1;" vertex="1" parent="1">
          <mxGeometry x="338" y="-395" width="323" height="317" as="geometry" />
        </mxCell>
        <mxCell id="XAVyZsMHDlcsrmJLPfq--68" value="" style="rounded=1;whiteSpace=wrap;html=1;dashed=1;" vertex="1" parent="1">
          <mxGeometry x="6" y="-398" width="323" height="320" as="geometry" />
        </mxCell>
        <mxCell id="XAVyZsMHDlcsrmJLPfq--2" style="rounded=0;orthogonalLoop=1;jettySize=auto;html=1;entryX=0;entryY=0.5;entryDx=0;entryDy=0;fontSize=12;startSize=8;endSize=8;exitX=1;exitY=0;exitDx=0;exitDy=0;endArrow=openThin;endFill=0;strokeColor=#FFB570;strokeWidth=2;fillColor=#dae8fc;" edge="1" parent="1" source="XAVyZsMHDlcsrmJLPfq--5" target="XAVyZsMHDlcsrmJLPfq--7">
          <mxGeometry relative="1" as="geometry">
            <mxPoint x="90.5" y="-271" as="sourcePoint" />
            <mxPoint x="194" y="-305.5" as="targetPoint" />
          </mxGeometry>
        </mxCell>
        <mxCell id="XAVyZsMHDlcsrmJLPfq--3" style="edgeStyle=none;curved=1;rounded=0;orthogonalLoop=1;jettySize=auto;html=1;fontSize=12;startSize=8;endSize=8;endArrow=openThin;endFill=0;strokeColor=#FFB570;strokeWidth=2;" edge="1" parent="1" source="XAVyZsMHDlcsrmJLPfq--5" target="XAVyZsMHDlcsrmJLPfq--8">
          <mxGeometry relative="1" as="geometry" />
        </mxCell>
        <mxCell id="XAVyZsMHDlcsrmJLPfq--4" style="rounded=0;orthogonalLoop=1;jettySize=auto;html=1;entryX=0;entryY=0.5;entryDx=0;entryDy=0;fontSize=12;startSize=8;endSize=8;endArrow=openThin;endFill=0;strokeColor=#FFB570;strokeWidth=2;fillColor=#ffe6cc;" edge="1" parent="1" source="XAVyZsMHDlcsrmJLPfq--5" target="XAVyZsMHDlcsrmJLPfq--12">
          <mxGeometry relative="1" as="geometry" />
        </mxCell>
        <mxCell id="XAVyZsMHDlcsrmJLPfq--5" value="&lt;font style=&quot;font-size: 10px;&quot;&gt;USA&lt;/font&gt;" style="ellipse;whiteSpace=wrap;html=1;aspect=fixed;fillColor=#dae8fc;strokeColor=#6c8ebf;" vertex="1" parent="1">
          <mxGeometry x="28" y="-288" width="37" height="37" as="geometry" />
        </mxCell>
        <mxCell id="XAVyZsMHDlcsrmJLPfq--6" style="rounded=0;orthogonalLoop=1;jettySize=auto;html=1;entryX=0.5;entryY=0;entryDx=0;entryDy=0;fontSize=12;startSize=8;endSize=8;endArrow=openThin;endFill=0;strokeColor=#FFB570;strokeWidth=2;fillColor=#dae8fc;" edge="1" parent="1" source="XAVyZsMHDlcsrmJLPfq--7" target="XAVyZsMHDlcsrmJLPfq--8">
          <mxGeometry relative="1" as="geometry" />
        </mxCell>
        <mxCell id="XAVyZsMHDlcsrmJLPfq--7" value="&lt;span style=&quot;color: rgb(51, 51, 51); font-family: arial; text-align: start;&quot;&gt;&lt;font style=&quot;font-size: 10px;&quot;&gt;Donald Trump&lt;/font&gt;&lt;/span&gt;" style="ellipse;whiteSpace=wrap;html=1;aspect=fixed;fillColor=#dae8fc;strokeColor=#6c8ebf;" vertex="1" parent="1">
          <mxGeometry x="184" y="-362" width="37" height="37" as="geometry" />
        </mxCell>
        <mxCell id="XAVyZsMHDlcsrmJLPfq--8" value="&lt;span style=&quot;color: rgb(51, 51, 51); font-family: arial; text-align: start;&quot;&gt;&lt;font style=&quot;font-size: 10px;&quot;&gt;Joe Biden&lt;/font&gt;&lt;/span&gt;" style="ellipse;whiteSpace=wrap;html=1;aspect=fixed;fillColor=#dae8fc;strokeColor=#6c8ebf;" vertex="1" parent="1">
          <mxGeometry x="255" y="-239" width="37" height="37" as="geometry" />
        </mxCell>
        <mxCell id="XAVyZsMHDlcsrmJLPfq--9" style="rounded=0;orthogonalLoop=1;jettySize=auto;html=1;fontSize=12;startSize=8;endSize=8;endArrow=openThin;endFill=0;strokeColor=#FFB570;strokeWidth=2;entryX=0.5;entryY=1;entryDx=0;entryDy=0;" edge="1" parent="1" source="XAVyZsMHDlcsrmJLPfq--10" target="XAVyZsMHDlcsrmJLPfq--8">
          <mxGeometry relative="1" as="geometry">
            <mxPoint x="364.73338317871094" y="-230.86664199829102" as="targetPoint" />
          </mxGeometry>
        </mxCell>
        <mxCell id="XAVyZsMHDlcsrmJLPfq--10" value="&lt;span style=&quot;color: rgb(51, 51, 51); font-family: arial; text-align: start;&quot;&gt;&lt;font style=&quot;font-size: 10px;&quot;&gt;Justin Trudeau&lt;/font&gt;&lt;/span&gt;" style="ellipse;whiteSpace=wrap;html=1;aspect=fixed;fillColor=#dae8fc;strokeColor=#6c8ebf;" vertex="1" parent="1">
          <mxGeometry x="205" y="-134" width="37" height="37" as="geometry" />
        </mxCell>
        <mxCell id="XAVyZsMHDlcsrmJLPfq--11" style="edgeStyle=none;curved=1;rounded=0;orthogonalLoop=1;jettySize=auto;html=1;fontSize=12;startSize=8;endSize=8;endArrow=openThin;endFill=0;strokeColor=#FFB570;strokeWidth=2;" edge="1" parent="1" source="XAVyZsMHDlcsrmJLPfq--12" target="XAVyZsMHDlcsrmJLPfq--10">
          <mxGeometry relative="1" as="geometry" />
        </mxCell>
        <mxCell id="XAVyZsMHDlcsrmJLPfq--12" value="&lt;font style=&quot;font-size: 10px;&quot;&gt;Canada&lt;/font&gt;" style="ellipse;whiteSpace=wrap;html=1;aspect=fixed;fillColor=#dae8fc;strokeColor=#6c8ebf;" vertex="1" parent="1">
          <mxGeometry x="81" y="-131" width="37" height="37" as="geometry" />
        </mxCell>
        <mxCell id="XAVyZsMHDlcsrmJLPfq--14" value="&lt;font style=&quot;font-size: 10px;&quot;&gt;President,2016&lt;/font&gt;" style="text;html=1;align=center;verticalAlign=middle;whiteSpace=wrap;rounded=0;fontSize=16;" vertex="1" parent="1">
          <mxGeometry x="69.5" y="-345" width="60" height="30" as="geometry" />
        </mxCell>
        <mxCell id="XAVyZsMHDlcsrmJLPfq--15" value="&lt;font style=&quot;font-size: 10px;&quot;&gt;Successor,2021&lt;/font&gt;" style="text;html=1;align=center;verticalAlign=middle;whiteSpace=wrap;rounded=0;fontSize=16;" vertex="1" parent="1">
          <mxGeometry x="243.5" y="-315" width="60" height="30" as="geometry" />
        </mxCell>
        <mxCell id="XAVyZsMHDlcsrmJLPfq--16" value="&lt;font style=&quot;font-size: 10px;&quot;&gt;Born in &lt;sup&gt;-1&lt;/sup&gt;,1942&lt;/font&gt;" style="text;html=1;align=center;verticalAlign=middle;whiteSpace=wrap;rounded=0;fontSize=16;" vertex="1" parent="1">
          <mxGeometry x="85" y="-285" width="114" height="30" as="geometry" />
        </mxCell>
        <mxCell id="XAVyZsMHDlcsrmJLPfq--17" value="&lt;font style=&quot;font-size: 10px;&quot;&gt;&lt;span style=&quot;white-space: pre;&quot; data-slate-fragment=&quot;JTVCJTdCJTIydHlwZSUyMiUzQSUyMnBhcmFncmFwaCUyMiUyQyUyMmNoaWxkcmVuJTIyJTNBJTVCJTdCJTIyaWQlMjIlM0ElMjJlTFo0cG95QU96JTIyJTJDJTIycGFyYUlkeCUyMiUzQTAlMkMlMjJzcmMlMjIlM0ElMjJlc3RhYmxpc2glMjBkaXBsb21hdGljJTIwcmVsYXRpb24lMjIlMkMlMjJkc3QlMjIlM0ElMjIlRTUlQkIlQkElRTclQUIlOEIlRTUlQTQlOTYlRTQlQkElQTQlRTUlODUlQjMlRTclQjMlQkIlMjIlMkMlMjJtZXRhZGF0YSUyMiUzQSUyMiUyMiUyQyUyMm1ldGFEYXRhJTIyJTNBJTVCJTVEJTJDJTIydGV4dCUyMiUzQSUyMmVzdGFibGlzaCUyMGRpcGxvbWF0aWMlMjByZWxhdGlvbiUyMiU3RCU1RCU3RCU1RA==&quot;&gt;establish diplomatic&lt;/span&gt;&lt;/font&gt;&lt;div&gt;&lt;font style=&quot;font-size: 10px;&quot;&gt;&lt;span style=&quot;white-space: pre;&quot; data-slate-fragment=&quot;JTVCJTdCJTIydHlwZSUyMiUzQSUyMnBhcmFncmFwaCUyMiUyQyUyMmNoaWxkcmVuJTIyJTNBJTVCJTdCJTIyaWQlMjIlM0ElMjJlTFo0cG95QU96JTIyJTJDJTIycGFyYUlkeCUyMiUzQTAlMkMlMjJzcmMlMjIlM0ElMjJlc3RhYmxpc2glMjBkaXBsb21hdGljJTIwcmVsYXRpb24lMjIlMkMlMjJkc3QlMjIlM0ElMjIlRTUlQkIlQkElRTclQUIlOEIlRTUlQTQlOTYlRTQlQkElQTQlRTUlODUlQjMlRTclQjMlQkIlMjIlMkMlMjJtZXRhZGF0YSUyMiUzQSUyMiUyMiUyQyUyMm1ldGFEYXRhJTIyJTNBJTVCJTVEJTJDJTIydGV4dCUyMiUzQSUyMmVzdGFibGlzaCUyMGRpcGxvbWF0aWMlMjByZWxhdGlvbiUyMiU3RCU1RCU3RCU1RA==&quot;&gt; relation&lt;/span&gt;,1927&lt;/font&gt;&lt;/div&gt;" style="text;html=1;align=center;verticalAlign=middle;whiteSpace=wrap;rounded=0;fontSize=16;" vertex="1" parent="1">
          <mxGeometry x="69.5" y="-216.5" width="60" height="30" as="geometry" />
        </mxCell>
        <mxCell id="XAVyZsMHDlcsrmJLPfq--18" value="&lt;font style=&quot;font-size: 10px;&quot;&gt;Prime minister,2015&lt;/font&gt;" style="text;html=1;align=center;verticalAlign=middle;whiteSpace=wrap;rounded=0;fontSize=16;" vertex="1" parent="1">
          <mxGeometry x="107.5" y="-147" width="104" height="30" as="geometry" />
        </mxCell>
        <mxCell id="XAVyZsMHDlcsrmJLPfq--19" value="&lt;font style=&quot;font-size: 10px;&quot;&gt;Interview with,2021&lt;/font&gt;" style="text;html=1;align=center;verticalAlign=middle;whiteSpace=wrap;rounded=0;fontSize=16;" vertex="1" parent="1">
          <mxGeometry x="250" y="-171" width="60" height="30" as="geometry" />
        </mxCell>
        <mxCell id="XAVyZsMHDlcsrmJLPfq--23" style="rounded=0;orthogonalLoop=1;jettySize=auto;html=1;entryX=0;entryY=0.5;entryDx=0;entryDy=0;fontSize=12;startSize=8;endSize=8;exitX=1;exitY=0;exitDx=0;exitDy=0;endArrow=openThin;endFill=0;strokeColor=#FFB570;strokeWidth=2;" edge="1" parent="1" source="XAVyZsMHDlcsrmJLPfq--26" target="XAVyZsMHDlcsrmJLPfq--28">
          <mxGeometry relative="1" as="geometry">
            <mxPoint x="411.5" y="-244" as="sourcePoint" />
            <mxPoint x="515" y="-278.5" as="targetPoint" />
          </mxGeometry>
        </mxCell>
        <mxCell id="XAVyZsMHDlcsrmJLPfq--24" style="edgeStyle=none;curved=1;rounded=0;orthogonalLoop=1;jettySize=auto;html=1;fontSize=12;startSize=8;endSize=8;endArrow=openThin;endFill=0;strokeColor=#FFB570;strokeWidth=2;" edge="1" parent="1" source="XAVyZsMHDlcsrmJLPfq--26" target="XAVyZsMHDlcsrmJLPfq--29">
          <mxGeometry relative="1" as="geometry" />
        </mxCell>
        <mxCell id="XAVyZsMHDlcsrmJLPfq--25" style="rounded=0;orthogonalLoop=1;jettySize=auto;html=1;entryX=0;entryY=0.5;entryDx=0;entryDy=0;fontSize=12;startSize=8;endSize=8;endArrow=openThin;endFill=0;strokeColor=#FFB570;strokeWidth=2;" edge="1" parent="1" source="XAVyZsMHDlcsrmJLPfq--26" target="XAVyZsMHDlcsrmJLPfq--33">
          <mxGeometry relative="1" as="geometry" />
        </mxCell>
        <mxCell id="XAVyZsMHDlcsrmJLPfq--26" value="&lt;font style=&quot;font-size: 10px;&quot;&gt;USA&lt;/font&gt;" style="ellipse;whiteSpace=wrap;html=1;aspect=fixed;fillColor=#dae8fc;strokeColor=#6c8ebf;" vertex="1" parent="1">
          <mxGeometry x="423.5" y="-233" width="37" height="37" as="geometry" />
        </mxCell>
        <mxCell id="XAVyZsMHDlcsrmJLPfq--27" style="rounded=0;orthogonalLoop=1;jettySize=auto;html=1;entryX=0.5;entryY=0;entryDx=0;entryDy=0;fontSize=12;startSize=8;endSize=8;endArrow=openThin;endFill=0;strokeColor=#FFB570;strokeWidth=2;" edge="1" parent="1" source="XAVyZsMHDlcsrmJLPfq--28" target="XAVyZsMHDlcsrmJLPfq--29">
          <mxGeometry relative="1" as="geometry" />
        </mxCell>
        <mxCell id="XAVyZsMHDlcsrmJLPfq--28" value="&lt;span style=&quot;color: rgb(51, 51, 51); font-family: arial; text-align: start;&quot;&gt;&lt;font style=&quot;font-size: 10px;&quot;&gt;Donald Trump&lt;/font&gt;&lt;/span&gt;" style="ellipse;whiteSpace=wrap;html=1;aspect=fixed;fillColor=#dae8fc;strokeColor=#6c8ebf;" vertex="1" parent="1">
          <mxGeometry x="500.5" y="-311" width="37" height="37" as="geometry" />
        </mxCell>
        <mxCell id="XAVyZsMHDlcsrmJLPfq--29" value="&lt;span style=&quot;color: rgb(51, 51, 51); font-family: arial; text-align: start;&quot;&gt;&lt;font style=&quot;font-size: 10px;&quot;&gt;Joe Biden&lt;/font&gt;&lt;/span&gt;" style="ellipse;whiteSpace=wrap;html=1;aspect=fixed;fillColor=#dae8fc;strokeColor=#6c8ebf;" vertex="1" parent="1">
          <mxGeometry x="576" y="-221" width="37" height="37" as="geometry" />
        </mxCell>
        <mxCell id="XAVyZsMHDlcsrmJLPfq--30" style="rounded=0;orthogonalLoop=1;jettySize=auto;html=1;fontSize=12;startSize=8;endSize=8;endArrow=openThin;endFill=0;strokeColor=#FFB570;strokeWidth=2;entryX=0.5;entryY=1;entryDx=0;entryDy=0;" edge="1" parent="1" source="XAVyZsMHDlcsrmJLPfq--31" target="XAVyZsMHDlcsrmJLPfq--29">
          <mxGeometry relative="1" as="geometry">
            <mxPoint x="685.7333831787109" y="-203.86664199829102" as="targetPoint" />
          </mxGeometry>
        </mxCell>
        <mxCell id="XAVyZsMHDlcsrmJLPfq--31" value="&lt;span style=&quot;color: rgb(51, 51, 51); font-family: arial; text-align: start;&quot;&gt;&lt;font style=&quot;font-size: 10px;&quot;&gt;Justin Trudeau&lt;/font&gt;&lt;/span&gt;" style="ellipse;whiteSpace=wrap;html=1;aspect=fixed;fillColor=#dae8fc;strokeColor=#6c8ebf;" vertex="1" parent="1">
          <mxGeometry x="555" y="-141" width="37" height="37" as="geometry" />
        </mxCell>
        <mxCell id="XAVyZsMHDlcsrmJLPfq--32" style="edgeStyle=none;curved=1;rounded=0;orthogonalLoop=1;jettySize=auto;html=1;fontSize=12;startSize=8;endSize=8;endArrow=openThin;endFill=0;strokeColor=#FFB570;strokeWidth=2;" edge="1" parent="1" source="XAVyZsMHDlcsrmJLPfq--33" target="XAVyZsMHDlcsrmJLPfq--31">
          <mxGeometry relative="1" as="geometry" />
        </mxCell>
        <mxCell id="XAVyZsMHDlcsrmJLPfq--33" value="&lt;font style=&quot;font-size: 10px;&quot;&gt;Canada&lt;/font&gt;" style="ellipse;whiteSpace=wrap;html=1;aspect=fixed;fillColor=#dae8fc;strokeColor=#6c8ebf;" vertex="1" parent="1">
          <mxGeometry x="430" y="-147" width="37" height="37" as="geometry" />
        </mxCell>
        <mxCell id="XAVyZsMHDlcsrmJLPfq--34" value="&lt;font style=&quot;font-size: 10px;&quot;&gt;President,2016&lt;/font&gt;" style="text;html=1;align=center;verticalAlign=middle;whiteSpace=wrap;rounded=0;fontSize=16;" vertex="1" parent="1">
          <mxGeometry x="418.5" y="-290" width="60" height="30" as="geometry" />
        </mxCell>
        <mxCell id="XAVyZsMHDlcsrmJLPfq--35" value="&lt;font style=&quot;font-size: 10px;&quot;&gt;Successor,2021&lt;/font&gt;" style="text;html=1;align=center;verticalAlign=middle;whiteSpace=wrap;rounded=0;fontSize=16;" vertex="1" parent="1">
          <mxGeometry x="558" y="-281" width="60" height="30" as="geometry" />
        </mxCell>
        <mxCell id="XAVyZsMHDlcsrmJLPfq--36" value="&lt;font style=&quot;font-size: 10px;&quot;&gt;Born in &lt;sup&gt;-1&lt;/sup&gt;,1942&lt;/font&gt;" style="text;html=1;align=center;verticalAlign=middle;whiteSpace=wrap;rounded=0;fontSize=16;" vertex="1" parent="1">
          <mxGeometry x="423.5" y="-257.5" width="114" height="30" as="geometry" />
        </mxCell>
        <mxCell id="XAVyZsMHDlcsrmJLPfq--37" value="&lt;font style=&quot;font-size: 10px;&quot;&gt;&lt;span style=&quot;white-space: pre;&quot; data-slate-fragment=&quot;JTVCJTdCJTIydHlwZSUyMiUzQSUyMnBhcmFncmFwaCUyMiUyQyUyMmNoaWxkcmVuJTIyJTNBJTVCJTdCJTIyaWQlMjIlM0ElMjJlTFo0cG95QU96JTIyJTJDJTIycGFyYUlkeCUyMiUzQTAlMkMlMjJzcmMlMjIlM0ElMjJlc3RhYmxpc2glMjBkaXBsb21hdGljJTIwcmVsYXRpb24lMjIlMkMlMjJkc3QlMjIlM0ElMjIlRTUlQkIlQkElRTclQUIlOEIlRTUlQTQlOTYlRTQlQkElQTQlRTUlODUlQjMlRTclQjMlQkIlMjIlMkMlMjJtZXRhZGF0YSUyMiUzQSUyMiUyMiUyQyUyMm1ldGFEYXRhJTIyJTNBJTVCJTVEJTJDJTIydGV4dCUyMiUzQSUyMmVzdGFibGlzaCUyMGRpcGxvbWF0aWMlMjByZWxhdGlvbiUyMiU3RCU1RCU3RCU1RA==&quot;&gt;establish diplomatic&lt;/span&gt;&lt;/font&gt;&lt;div&gt;&lt;font style=&quot;font-size: 10px;&quot;&gt;&lt;span style=&quot;white-space: pre;&quot; data-slate-fragment=&quot;JTVCJTdCJTIydHlwZSUyMiUzQSUyMnBhcmFncmFwaCUyMiUyQyUyMmNoaWxkcmVuJTIyJTNBJTVCJTdCJTIyaWQlMjIlM0ElMjJlTFo0cG95QU96JTIyJTJDJTIycGFyYUlkeCUyMiUzQTAlMkMlMjJzcmMlMjIlM0ElMjJlc3RhYmxpc2glMjBkaXBsb21hdGljJTIwcmVsYXRpb24lMjIlMkMlMjJkc3QlMjIlM0ElMjIlRTUlQkIlQkElRTclQUIlOEIlRTUlQTQlOTYlRTQlQkElQTQlRTUlODUlQjMlRTclQjMlQkIlMjIlMkMlMjJtZXRhZGF0YSUyMiUzQSUyMiUyMiUyQyUyMm1ldGFEYXRhJTIyJTNBJTVCJTVEJTJDJTIydGV4dCUyMiUzQSUyMmVzdGFibGlzaCUyMGRpcGxvbWF0aWMlMjByZWxhdGlvbiUyMiU3RCU1RCU3RCU1RA==&quot;&gt; relation&lt;/span&gt;,1927&lt;/font&gt;&lt;/div&gt;" style="text;html=1;align=center;verticalAlign=middle;whiteSpace=wrap;rounded=0;fontSize=16;" vertex="1" parent="1">
          <mxGeometry x="450.5" y="-185" width="60" height="30" as="geometry" />
        </mxCell>
        <mxCell id="XAVyZsMHDlcsrmJLPfq--38" value="&lt;font style=&quot;font-size: 10px;&quot;&gt;Prime minister,2015&lt;/font&gt;" style="text;html=1;align=center;verticalAlign=middle;whiteSpace=wrap;rounded=0;fontSize=16;" vertex="1" parent="1">
          <mxGeometry x="458.5" y="-127" width="104" height="30" as="geometry" />
        </mxCell>
        <mxCell id="XAVyZsMHDlcsrmJLPfq--39" value="&lt;font style=&quot;font-size: 10px;&quot;&gt;President, 2023&lt;/font&gt;" style="text;html=1;align=center;verticalAlign=middle;whiteSpace=wrap;rounded=0;fontSize=16;" vertex="1" parent="1">
          <mxGeometry x="323" y="-257.5" width="153" height="30" as="geometry" />
        </mxCell>
        <mxCell id="XAVyZsMHDlcsrmJLPfq--41" value="&lt;font style=&quot;font-size: 10px;&quot;&gt;Interview with,2021&lt;/font&gt;" style="text;html=1;align=center;verticalAlign=middle;whiteSpace=wrap;rounded=0;fontSize=16;" vertex="1" parent="1">
          <mxGeometry x="592" y="-174" width="60" height="30" as="geometry" />
        </mxCell>
        <mxCell id="XAVyZsMHDlcsrmJLPfq--42" style="rounded=0;orthogonalLoop=1;jettySize=auto;html=1;fontSize=12;startSize=8;endSize=8;endArrow=openThin;endFill=0;strokeColor=#FFB570;strokeWidth=2;dashed=1;entryX=1;entryY=0.5;entryDx=0;entryDy=0;" edge="1" parent="1" target="XAVyZsMHDlcsrmJLPfq--43">
          <mxGeometry relative="1" as="geometry">
            <mxPoint x="423" y="-217" as="sourcePoint" />
            <mxPoint x="383" y="-219" as="targetPoint" />
          </mxGeometry>
        </mxCell>
        <mxCell id="XAVyZsMHDlcsrmJLPfq--43" value="&lt;font style=&quot;font-size: 10px;&quot;&gt;?&lt;/font&gt;" style="ellipse;whiteSpace=wrap;html=1;aspect=fixed;fillColor=#dae8fc;strokeColor=#6c8ebf;" vertex="1" parent="1">
          <mxGeometry x="340" y="-235" width="37" height="37" as="geometry" />
        </mxCell>
        <mxCell id="XAVyZsMHDlcsrmJLPfq--44" style="rounded=0;orthogonalLoop=1;jettySize=auto;html=1;entryX=0;entryY=0.5;entryDx=0;entryDy=0;fontSize=12;startSize=8;endSize=8;exitX=1;exitY=0;exitDx=0;exitDy=0;endArrow=openThin;endFill=0;strokeColor=#FFB570;strokeWidth=2;" edge="1" parent="1" source="XAVyZsMHDlcsrmJLPfq--47" target="XAVyZsMHDlcsrmJLPfq--49">
          <mxGeometry relative="1" as="geometry">
            <mxPoint x="769.5" y="-233" as="sourcePoint" />
            <mxPoint x="873" y="-267.5" as="targetPoint" />
          </mxGeometry>
        </mxCell>
        <mxCell id="XAVyZsMHDlcsrmJLPfq--45" style="edgeStyle=none;curved=1;rounded=0;orthogonalLoop=1;jettySize=auto;html=1;fontSize=12;startSize=8;endSize=8;endArrow=openThin;endFill=0;strokeColor=#FFB570;strokeWidth=2;" edge="1" parent="1" source="XAVyZsMHDlcsrmJLPfq--47" target="XAVyZsMHDlcsrmJLPfq--50">
          <mxGeometry relative="1" as="geometry" />
        </mxCell>
        <mxCell id="XAVyZsMHDlcsrmJLPfq--46" style="rounded=0;orthogonalLoop=1;jettySize=auto;html=1;entryX=0;entryY=0.5;entryDx=0;entryDy=0;fontSize=12;startSize=8;endSize=8;endArrow=openThin;endFill=0;strokeColor=#FFB570;strokeWidth=2;" edge="1" parent="1" source="XAVyZsMHDlcsrmJLPfq--47" target="XAVyZsMHDlcsrmJLPfq--54">
          <mxGeometry relative="1" as="geometry" />
        </mxCell>
        <mxCell id="XAVyZsMHDlcsrmJLPfq--47" value="&lt;span style=&quot;font-size: 10px;&quot;&gt;France&lt;/span&gt;" style="ellipse;whiteSpace=wrap;html=1;aspect=fixed;fillColor=#d5e8d4;strokeColor=#82b366;" vertex="1" parent="1">
          <mxGeometry x="781.5" y="-222" width="37" height="37" as="geometry" />
        </mxCell>
        <mxCell id="XAVyZsMHDlcsrmJLPfq--48" style="rounded=0;orthogonalLoop=1;jettySize=auto;html=1;entryX=0.5;entryY=0;entryDx=0;entryDy=0;fontSize=12;startSize=8;endSize=8;endArrow=openThin;endFill=0;strokeColor=#FFB570;strokeWidth=2;" edge="1" parent="1" source="XAVyZsMHDlcsrmJLPfq--49" target="XAVyZsMHDlcsrmJLPfq--50">
          <mxGeometry relative="1" as="geometry" />
        </mxCell>
        <mxCell id="XAVyZsMHDlcsrmJLPfq--49" value="&lt;span style=&quot;color: rgb(51, 51, 51); font-family: arial; text-align: start;&quot;&gt;&lt;font style=&quot;font-size: 10px;&quot;&gt;Donald Trump&lt;/font&gt;&lt;/span&gt;" style="ellipse;whiteSpace=wrap;html=1;aspect=fixed;fillColor=#d5e8d4;strokeColor=#82b366;" vertex="1" parent="1">
          <mxGeometry x="858.5" y="-300" width="37" height="37" as="geometry" />
        </mxCell>
        <mxCell id="XAVyZsMHDlcsrmJLPfq--50" value="&lt;span style=&quot;color: rgb(51, 51, 51); font-family: arial; text-align: start;&quot;&gt;&lt;font style=&quot;font-size: 10px;&quot;&gt;Joe Biden&lt;/font&gt;&lt;/span&gt;" style="ellipse;whiteSpace=wrap;html=1;aspect=fixed;fillColor=#d5e8d4;strokeColor=#82b366;" vertex="1" parent="1">
          <mxGeometry x="934" y="-210" width="37" height="37" as="geometry" />
        </mxCell>
        <mxCell id="XAVyZsMHDlcsrmJLPfq--51" style="rounded=0;orthogonalLoop=1;jettySize=auto;html=1;fontSize=12;startSize=8;endSize=8;endArrow=openThin;endFill=0;strokeColor=#FFB570;strokeWidth=2;entryX=0.5;entryY=1;entryDx=0;entryDy=0;" edge="1" parent="1" source="XAVyZsMHDlcsrmJLPfq--52" target="XAVyZsMHDlcsrmJLPfq--50">
          <mxGeometry relative="1" as="geometry">
            <mxPoint x="1043.733383178711" y="-192.86664199829102" as="targetPoint" />
          </mxGeometry>
        </mxCell>
        <mxCell id="XAVyZsMHDlcsrmJLPfq--52" value="&lt;span style=&quot;color: rgb(51, 51, 51); font-family: arial; text-align: start;&quot;&gt;&lt;font style=&quot;font-size: 10px;&quot;&gt;Justin Trudeau&lt;/font&gt;&lt;/span&gt;" style="ellipse;whiteSpace=wrap;html=1;aspect=fixed;fillColor=#d5e8d4;strokeColor=#82b366;" vertex="1" parent="1">
          <mxGeometry x="913" y="-130" width="37" height="37" as="geometry" />
        </mxCell>
        <mxCell id="XAVyZsMHDlcsrmJLPfq--53" style="edgeStyle=none;curved=1;rounded=0;orthogonalLoop=1;jettySize=auto;html=1;fontSize=12;startSize=8;endSize=8;endArrow=openThin;endFill=0;strokeColor=#FFB570;strokeWidth=2;" edge="1" parent="1" source="XAVyZsMHDlcsrmJLPfq--54" target="XAVyZsMHDlcsrmJLPfq--52">
          <mxGeometry relative="1" as="geometry" />
        </mxCell>
        <mxCell id="XAVyZsMHDlcsrmJLPfq--54" value="&lt;font style=&quot;font-size: 10px;&quot;&gt;Canada&lt;/font&gt;" style="ellipse;whiteSpace=wrap;html=1;aspect=fixed;fillColor=#d5e8d4;strokeColor=#82b366;" vertex="1" parent="1">
          <mxGeometry x="788" y="-136" width="37" height="37" as="geometry" />
        </mxCell>
        <mxCell id="XAVyZsMHDlcsrmJLPfq--55" value="&lt;font style=&quot;font-size: 10px;&quot;&gt;President,2012&lt;/font&gt;" style="text;html=1;align=center;verticalAlign=middle;whiteSpace=wrap;rounded=0;fontSize=16;" vertex="1" parent="1">
          <mxGeometry x="776.5" y="-279" width="60" height="30" as="geometry" />
        </mxCell>
        <mxCell id="XAVyZsMHDlcsrmJLPfq--56" value="&lt;font style=&quot;font-size: 10px;&quot;&gt;Successor,2017&lt;/font&gt;" style="text;html=1;align=center;verticalAlign=middle;whiteSpace=wrap;rounded=0;fontSize=16;" vertex="1" parent="1">
          <mxGeometry x="916" y="-270" width="60" height="30" as="geometry" />
        </mxCell>
        <mxCell id="XAVyZsMHDlcsrmJLPfq--57" value="&lt;font style=&quot;font-size: 10px;&quot;&gt;Born in &lt;sup&gt;-1&lt;/sup&gt;,1977&lt;/font&gt;" style="text;html=1;align=center;verticalAlign=middle;whiteSpace=wrap;rounded=0;fontSize=16;" vertex="1" parent="1">
          <mxGeometry x="781.5" y="-246.5" width="114" height="30" as="geometry" />
        </mxCell>
        <mxCell id="XAVyZsMHDlcsrmJLPfq--58" value="&lt;font style=&quot;font-size: 10px;&quot;&gt;&lt;span style=&quot;white-space: pre;&quot; data-slate-fragment=&quot;JTVCJTdCJTIydHlwZSUyMiUzQSUyMnBhcmFncmFwaCUyMiUyQyUyMmNoaWxkcmVuJTIyJTNBJTVCJTdCJTIyaWQlMjIlM0ElMjJlTFo0cG95QU96JTIyJTJDJTIycGFyYUlkeCUyMiUzQTAlMkMlMjJzcmMlMjIlM0ElMjJlc3RhYmxpc2glMjBkaXBsb21hdGljJTIwcmVsYXRpb24lMjIlMkMlMjJkc3QlMjIlM0ElMjIlRTUlQkIlQkElRTclQUIlOEIlRTUlQTQlOTYlRTQlQkElQTQlRTUlODUlQjMlRTclQjMlQkIlMjIlMkMlMjJtZXRhZGF0YSUyMiUzQSUyMiUyMiUyQyUyMm1ldGFEYXRhJTIyJTNBJTVCJTVEJTJDJTIydGV4dCUyMiUzQSUyMmVzdGFibGlzaCUyMGRpcGxvbWF0aWMlMjByZWxhdGlvbiUyMiU3RCU1RCU3RCU1RA==&quot;&gt;establish diplomatic&lt;/span&gt;&lt;/font&gt;&lt;div&gt;&lt;font style=&quot;font-size: 10px;&quot;&gt;&lt;span style=&quot;white-space: pre;&quot; data-slate-fragment=&quot;JTVCJTdCJTIydHlwZSUyMiUzQSUyMnBhcmFncmFwaCUyMiUyQyUyMmNoaWxkcmVuJTIyJTNBJTVCJTdCJTIyaWQlMjIlM0ElMjJlTFo0cG95QU96JTIyJTJDJTIycGFyYUlkeCUyMiUzQTAlMkMlMjJzcmMlMjIlM0ElMjJlc3RhYmxpc2glMjBkaXBsb21hdGljJTIwcmVsYXRpb24lMjIlMkMlMjJkc3QlMjIlM0ElMjIlRTUlQkIlQkElRTclQUIlOEIlRTUlQTQlOTYlRTQlQkElQTQlRTUlODUlQjMlRTclQjMlQkIlMjIlMkMlMjJtZXRhZGF0YSUyMiUzQSUyMiUyMiUyQyUyMm1ldGFEYXRhJTIyJTNBJTVCJTVEJTJDJTIydGV4dCUyMiUzQSUyMmVzdGFibGlzaCUyMGRpcGxvbWF0aWMlMjByZWxhdGlvbiUyMiU3RCU1RCU3RCU1RA==&quot;&gt; relation&lt;/span&gt;,1842&lt;/font&gt;&lt;/div&gt;" style="text;html=1;align=center;verticalAlign=middle;whiteSpace=wrap;rounded=0;fontSize=16;" vertex="1" parent="1">
          <mxGeometry x="808.5" y="-174" width="60" height="30" as="geometry" />
        </mxCell>
        <mxCell id="XAVyZsMHDlcsrmJLPfq--59" value="&lt;font style=&quot;font-size: 10px;&quot;&gt;Prime minister,2022&lt;/font&gt;" style="text;html=1;align=center;verticalAlign=middle;whiteSpace=wrap;rounded=0;fontSize=16;" vertex="1" parent="1">
          <mxGeometry x="816.5" y="-116" width="104" height="30" as="geometry" />
        </mxCell>
        <mxCell id="XAVyZsMHDlcsrmJLPfq--60" value="&lt;font style=&quot;font-size: 10px;&quot;&gt;Interview with,2022&lt;/font&gt;" style="text;html=1;align=center;verticalAlign=middle;whiteSpace=wrap;rounded=0;fontSize=16;" vertex="1" parent="1">
          <mxGeometry x="950" y="-163" width="60" height="30" as="geometry" />
        </mxCell>
        <mxCell id="XAVyZsMHDlcsrmJLPfq--61" style="rounded=0;orthogonalLoop=1;jettySize=auto;html=1;fontSize=12;startSize=8;endSize=8;endArrow=openThin;endFill=0;strokeColor=#FFB570;strokeWidth=2;dashed=1;entryX=1;entryY=0.5;entryDx=0;entryDy=0;" edge="1" parent="1" target="XAVyZsMHDlcsrmJLPfq--62">
          <mxGeometry relative="1" as="geometry">
            <mxPoint x="781" y="-206" as="sourcePoint" />
            <mxPoint x="741" y="-208" as="targetPoint" />
          </mxGeometry>
        </mxCell>
        <mxCell id="XAVyZsMHDlcsrmJLPfq--62" value="&lt;font style=&quot;font-size: 10px;&quot;&gt;?&lt;/font&gt;" style="ellipse;whiteSpace=wrap;html=1;aspect=fixed;fillColor=#d5e8d4;strokeColor=#82b366;" vertex="1" parent="1">
          <mxGeometry x="698" y="-224" width="37" height="37" as="geometry" />
        </mxCell>
        <mxCell id="XAVyZsMHDlcsrmJLPfq--63" value="&lt;font style=&quot;font-size: 10px;&quot;&gt;President, 2023&lt;/font&gt;" style="text;html=1;align=center;verticalAlign=middle;whiteSpace=wrap;rounded=0;fontSize=16;" vertex="1" parent="1">
          <mxGeometry x="672" y="-250" width="153" height="30" as="geometry" />
        </mxCell>
        <mxCell id="XAVyZsMHDlcsrmJLPfq--66" style="rounded=0;orthogonalLoop=1;jettySize=auto;html=1;entryX=0.5;entryY=1;entryDx=0;entryDy=0;fontSize=12;startSize=8;endSize=8;endArrow=openThin;endFill=0;strokeColor=#FFB570;strokeWidth=2;fillColor=#dae8fc;exitX=0.5;exitY=0;exitDx=0;exitDy=0;" edge="1" parent="1" source="XAVyZsMHDlcsrmJLPfq--10" target="XAVyZsMHDlcsrmJLPfq--7">
          <mxGeometry relative="1" as="geometry">
            <mxPoint x="109" y="-190" as="sourcePoint" />
            <mxPoint x="255" y="-345" as="targetPoint" />
          </mxGeometry>
        </mxCell>
        <mxCell id="XAVyZsMHDlcsrmJLPfq--67" value="&lt;span style=&quot;font-size: 10px;&quot;&gt;Interview with&lt;/span&gt;&lt;span style=&quot;font-size: 10px;&quot;&gt;,2017&lt;/span&gt;" style="text;html=1;align=center;verticalAlign=middle;whiteSpace=wrap;rounded=0;fontSize=16;" vertex="1" parent="1">
          <mxGeometry x="161" y="-194" width="60" height="30" as="geometry" />
        </mxCell>
        <mxCell id="XAVyZsMHDlcsrmJLPfq--71" value="&lt;b style=&quot;&quot;&gt;&lt;font style=&quot;font-size: 14px;&quot;&gt;训练集&lt;/font&gt;&lt;/b&gt;" style="text;html=1;align=center;verticalAlign=middle;whiteSpace=wrap;rounded=0;fontSize=16;" vertex="1" parent="1">
          <mxGeometry x="104.5" y="-394" width="126" height="30" as="geometry" />
        </mxCell>
        <mxCell id="XAVyZsMHDlcsrmJLPfq--72" value="&lt;b style=&quot;&quot;&gt;&lt;font style=&quot;font-size: 14px;&quot;&gt;直推推理测试集&lt;/font&gt;&lt;/b&gt;" style="text;html=1;align=center;verticalAlign=middle;whiteSpace=wrap;rounded=0;fontSize=16;" vertex="1" parent="1">
          <mxGeometry x="418.5" y="-388" width="184" height="30" as="geometry" />
        </mxCell>
        <mxCell id="XAVyZsMHDlcsrmJLPfq--73" value="&lt;b style=&quot;&quot;&gt;&lt;font style=&quot;font-size: 14px;&quot;&gt;归纳推理测试集&lt;/font&gt;&lt;/b&gt;" style="text;html=1;align=center;verticalAlign=middle;whiteSpace=wrap;rounded=0;fontSize=16;" vertex="1" parent="1">
          <mxGeometry x="772" y="-392" width="184" height="30" as="geometry" />
        </mxCell>
      </root>
    </mxGraphModel>
  </diagram>
</mxfile>
